<?xml version="1.0" encoding="UTF-8" standalone="no"?>
<svg
   xmlns:dc="http://purl.org/dc/elements/1.1/"
   xmlns:cc="http://creativecommons.org/ns#"
   xmlns:rdf="http://www.w3.org/1999/02/22-rdf-syntax-ns#"
   xmlns:svg="http://www.w3.org/2000/svg"
   xmlns="http://www.w3.org/2000/svg"
   xmlns:sodipodi="http://sodipodi.sourceforge.net/DTD/sodipodi-0.dtd"
   xmlns:inkscape="http://www.inkscape.org/namespaces/inkscape"
   version="1.1"
   id="Logo"
   inkscape:version="1.0.2 (e86c870879, 2021-01-15, custom)"
   sodipodi:docname="ig.svg"
   x="0px"
   y="0px"
   viewBox="192 192 128 128"
   enable-background="new 192 192 128 128"
   xml:space="preserve"><metadata
   id="metadata11"><rdf:RDF><cc:Work
       rdf:about=""><dc:format>image/svg+xml</dc:format><dc:type
         rdf:resource="http://purl.org/dc/dcmitype/StillImage" /><dc:title></dc:title></cc:Work></rdf:RDF></metadata><defs
   id="defs9" /><sodipodi:namedview
   pagecolor="#ffffff"
   bordercolor="#666666"
   borderopacity="1"
   objecttolerance="10"
   gridtolerance="10"
   guidetolerance="10"
   inkscape:pageopacity="0"
   inkscape:pageshadow="2"
   inkscape:window-width="2560"
   inkscape:window-height="1017"
   id="namedview7"
   showgrid="false"
   inkscape:zoom="6.640625"
   inkscape:cx="64"
   inkscape:cy="64"
   inkscape:window-x="-8"
   inkscape:window-y="-8"
   inkscape:window-maximized="1"
   inkscape:current-layer="Logo" />
<g
   id="g3"
   style="fill:#8d0739;fill-opacity:1">
	<path
   id="path5"
   fill="#FFFFFF"
   d="M256,203.532c17.088,0,19.112,0.065,25.86,0.372c6.241,0.285,9.63,1.328,11.884,2.204   c2.989,1.161,5.12,2.548,7.359,4.788c2.241,2.24,3.627,4.371,4.787,7.358c0.877,2.255,1.92,5.644,2.204,11.885   c0.308,6.748,0.375,8.772,0.375,25.861c0,17.088-0.066,19.114-0.375,25.86c-0.285,6.241-1.328,9.63-2.204,11.884   c-1.16,2.989-2.546,5.12-4.787,7.359c-2.239,2.241-4.371,3.627-7.359,4.787c-2.254,0.878-5.643,1.921-11.884,2.204   c-6.746,0.31-8.771,0.373-25.86,0.373c-17.091,0-19.114-0.064-25.861-0.373c-6.24-0.284-9.629-1.326-11.885-2.204   c-2.987-1.16-5.118-2.546-7.358-4.787c-2.24-2.239-3.627-4.371-4.788-7.359c-0.877-2.254-1.919-5.643-2.204-11.883   c-0.307-6.748-0.372-8.773-0.372-25.861c0-17.089,0.065-19.113,0.372-25.861c0.285-6.24,1.328-9.629,2.204-11.885   c1.161-2.987,2.548-5.118,4.788-7.358c2.24-2.24,4.372-3.626,7.358-4.788c2.255-0.877,5.644-1.919,11.885-2.204   C236.887,203.597,238.911,203.532,256,203.532 M256,192c-17.382,0-19.561,0.074-26.388,0.385   c-6.812,0.31-11.464,1.393-15.535,2.975c-4.209,1.636-7.777,3.823-11.336,7.382c-3.559,3.558-5.746,7.127-7.382,11.335   c-1.582,4.071-2.664,8.723-2.975,15.535C192.074,236.438,192,238.618,192,256c0,17.38,0.074,19.561,0.385,26.386   c0.31,6.813,1.393,11.465,2.975,15.537c1.636,4.207,3.823,7.777,7.381,11.336c3.559,3.557,7.127,5.745,11.336,7.381   c4.071,1.584,8.723,2.664,15.536,2.976C236.439,319.926,238.619,320,256,320c17.38,0,19.561-0.074,26.386-0.385   c6.813-0.312,11.465-1.392,15.537-2.976c4.207-1.635,7.777-3.824,11.336-7.381c3.557-3.559,5.745-7.128,7.381-11.336   c1.583-4.072,2.664-8.724,2.976-15.537C319.927,275.561,320,273.38,320,256c0-17.382-0.074-19.561-0.385-26.388   c-0.312-6.812-1.393-11.464-2.976-15.535c-1.635-4.209-3.824-7.777-7.381-11.336c-3.559-3.558-7.128-5.746-11.336-7.381   c-4.072-1.582-8.724-2.664-15.537-2.975C275.561,192.073,273.381,192,256,192L256,192z"
   style="fill:#8d0739;fill-opacity:1" />
	<path
   id="path7"
   fill="#FFFFFF"
   d="M256,223.135c-18.151,0-32.865,14.714-32.865,32.865s14.714,32.865,32.865,32.865   c18.15,0,32.865-14.715,32.865-32.865C288.865,237.849,274.15,223.135,256,223.135z M256,277.334   c-11.782,0-21.333-9.552-21.333-21.334c0-11.782,9.551-21.334,21.333-21.334c11.782,0,21.333,9.551,21.333,21.334   C277.333,267.781,267.782,277.334,256,277.334z"
   style="fill:#8d0739;fill-opacity:1" />
	<circle
   id="circle9"
   fill="#FFFFFF"
   cx="290.163"
   cy="221.836"
   r="7.68"
   style="fill:#8d0739;fill-opacity:1" />
</g>
</svg>
