<?xml version="1.0" encoding="utf-8"?>
<!-- Generator: Adobe Illustrator 25.1.0, SVG Export Plug-In . SVG Version: 6.00 Build 0)  -->
<svg version="1.1"
	 id="Capa_1" inkscape:version="1.0.2 (e86c870879, 2021-01-15, custom)" sodipodi:docname="Sin título-1.svg" xmlns:cc="http://creativecommons.org/ns#" xmlns:dc="http://purl.org/dc/elements/1.1/" xmlns:inkscape="http://www.inkscape.org/namespaces/inkscape" xmlns:rdf="http://www.w3.org/1999/02/22-rdf-syntax-ns#" xmlns:sodipodi="http://sodipodi.sourceforge.net/DTD/sodipodi-0.dtd" xmlns:svg="http://www.w3.org/2000/svg"
	 xmlns="http://www.w3.org/2000/svg" xmlns:xlink="http://www.w3.org/1999/xlink" x="0px" y="0px" viewBox="0 0 283 256"
	 style="enable-background:new 0 0 283 256;" xml:space="preserve">
<style type="text/css">
	.st0{fill:#FABA09;}
	.st1{fill:#8D0739;}
</style>
<g>
	<path id="path10" sodipodi:nodetypes="ssssssccsscsscccss" class="st0" d="M161.6,130.7c-6.5,0-13,0.2-19.4,0.6
		c-25.6,1.5-49.4,5.7-67,13.6s-28.8,19.4-28.8,34.2c0,10.7,7.4,20.5,18.3,25.7s25.3,8.2,39.7,9.9c28.8,3.4,57.7,1.4,57.7,1.4l0-1
		c-11.6-0.3-34.1,0.1-53.8-4c-9.9-2.1-19-5.3-25.7-10.2c-6.7-4.9-11-11.5-11.3-20.6c-0.3-12.3,8.2-21.9,22.4-29.1
		c14.2-7.2,34-11.9,55.8-14.3c43.7-4.8,95.8-0.4,128.1,11.1l0.3-0.9c0,0,0,0,0,0C254.3,137.7,207.2,130.4,161.6,130.7L161.6,130.7z"
		/>
	<path id="path4" class="st1" d="M8.2,0L7.7,3.4C7.6,4,7.1,6,6.3,8.1s-2.1,4-3.6,4.7L0,14l2.9,0.8c8.4,2.3,24.6,12.4,39.4,23.2l0,0
		h0c0,0,0,0,0,0c8.4,6.2,16.8,12.7,24,18.6c0,0,0,0,0,0c5.6,4.5,10.6,8.6,14.3,11.6c3.7,3.1,6.1,5.1,7,5.7l0.7,0.5l2.2-1.9
		c-0.4,3.8-0.5,7.8-0.5,11.8c0,0,0,0,0,0h0c0,0,0,0,0,0.1l2.3,0.1c0,0,0.5-7.9,3-15.7c1.3-3.9,3-7.8,5.4-10.6
		c2.1-2.5,4.7-4.1,7.9-4.5c0,1.5,0.1,2.9,0.1,4.2v0c-0.1,5.3-0.4,7.8-1.3,9.2c-0.9,1.3-2.5,2-5.7,3.1l-0.8,0.3v5.4l1.5-0.5
		c1.7-0.6,3.1-1.1,4.2-1.7c1.2-0.6,2.1-1.4,2.8-2.6c1.3-2.3,1.5-5.5,1.5-11.5V58v0v0v-1.4c0-2.2-0.1-4.5-0.1-7.2v-1.1h-1.1
		c-8.6,0-13.8,4.8-16.4,11.6c-1.4,3.5-2.2,7.7-2.6,12L90,71.3c-0.8-0.7-3.4-2.6-7.3-5.5c-3.9-2.9-9.1-6.7-14.9-11c0,0,0,0,0,0v0
		c0,0,0,0,0,0l0,0l0,0c0,0,0,0,0,0l0,0c-7.4-5.5-15.9-12-24-18.6l0,0l0,0l0,0C35.6,29.8,27.8,23,21.7,17C15.6,11.1,11.2,5.9,9.8,3.1
		L8.2,0z M60.9,52.9l-1.4,0.3c-2.6,0.6-4.5,1.7-5.7,3.4c-1.2,1.6-1.7,3.7-1.7,5.9v3c0,2.8,2.1,5,4.8,7c2.7,2,6.3,4,9.9,5.9
		c3.6,2,7.3,4,10.2,6.1c2.9,2.1,4.9,4.3,5.5,6.5l2.2-0.3v-3.1l0-0.1c-0.8-2.9-3.1-5.2-6.1-7.3c-3-2.1-6.6-3.9-10.2-5.7
		c-3.6-1.8-7-3.6-9.6-5.4c-2.5-1.8-4-3.5-4.2-5.2c0.2-1.4,0.6-2.6,1.4-3.5c0.8-0.9,2.1-1.7,4-2l0.9-0.2V52.9z M98.1,77
		C84,99.8,75.9,119.5,75.3,142.8l0,0.5c0,0.3-0.1,0.7-0.1,1l0,0v0c0,0.3,0,0.5,0,0.7c0,0,0,0,0,0c0.7-0.3,1.5-0.7,2.3-1l0-0.6
		c1.2-21.6,8.9-40.4,22.4-62.1l0.2-0.3l0.1-3.3L98.1,77z M122.2,80.5c-2.1,0-4,0.1-5.9,0.4c-2.1,0.3-4.7,0.7-6.8,1.7
		c-1.1,0.5-2,1.1-2.7,2c-0.7,0.9-1.1,2.1-0.8,3.4l0.4,3l0-0.2c0,0.1,0,0.5,0.2,1c1.3,4.2,4.3,6.3,7,8.1c2.8,1.8,5.5,3.3,7.1,6.5
		l2.1-0.7l-0.5-3.2l-0.1-0.2c-1.8-3.7-4.8-5.6-7.5-7.2c-2.6-1.6-4.7-3-6-5.7c0.3-0.8,1.2-1.6,2.7-2.2c1.7-0.6,3.8-1,5.6-1.3h0l0,0
		c13.7-2.2,31.2,1.7,48,7.7c6.7,2.4,13.2,5,19.4,7.8c2.5,1.1,5.1,2.2,7.3,3.3c6.6,3,12.8,6.1,17.9,8.6l0,0l1-2l0,0
		c0,0-7.8-3.9-17.9-8.6c-2.5-1.2-4.9-2.2-7.5-3.4c-3.8-1.7-6.7-3.2-11-4.9C156.9,87.4,136.8,80.6,122.2,80.5z M101.9,93.2v4.3l0,0.1
		c1.3,7.3,6.1,10.5,10.4,13.3c4.3,2.8,8.1,5.2,8.9,11.6l0,0.1l0.1,0.2c-0.4,3.2-2.2,5.7-4.3,8.5c-0.7,0.9-1.5,1.9-2.3,3
		c1.9-0.3,3.8-0.6,5.7-0.8c1.8-2.6,3.3-5.4,3.3-9.2v-3c0-0.6,0-1.4-0.1-2.2c-1-7.2-5.6-10.3-9.9-13.1c-4.3-2.8-8.3-5.3-9.4-11.8
		l-0.2-0.9h-1H101.9z M166.1,131.8L166.1,131.8c-6.4,0-12.8,0.2-19,0.5c-25,1.3-48.2,5.3-65.3,13.1c-17,7.8-28,19.3-28,33.7
		c0,10.8,7.4,20.5,18.3,25.7c10.9,5.2,25.3,8.2,39.7,9.9c28.8,3.4,57.5,1.4,57.6,1.4c0.7-0.1,0.8-1,0-1.1c-11.6-0.3-34.1,0.1-53.8-4
		c-9.9-2.1-19-5.3-25.7-10.2c-6.7-4.9-11-11.5-11.2-20.5c-0.3-12.3,8-21.8,21.9-28.9c13.9-7,33.3-11.5,54.8-13.7
		c43-4.4,94.3,0.4,126.6,12c0.7,0.3,1.2-0.7,0.3-1C257.6,139.2,210.9,131.8,166.1,131.8z M246.3,152.7c-4.3,0-7.9,1.4-10.5,4
		c-2.7,2.8-4,6.2-4,10.4c0,2,0.2,3.6,1,5.1c0.7,1.5,1.8,2.9,3.4,4.4c0.9,0.7,3.1,2.1,6.9,4.3l1.7,1c1.8,1,3.1,2,3.8,3
		c0.7,1,1.2,2.1,1.2,3.3c0,1.5-0.4,2.8-1.5,3.7c-1.1,1-2.3,1.5-3.9,1.5s-3-0.5-4.3-1.7c-1.3-1.2-2.3-2.8-3.2-4.9l-6.1,3.4
		c1.3,2.8,3.2,4.9,5.7,6.4c2.6,1.5,5.4,2.2,8.7,2.2c4.6,0,8.3-1.3,11.2-4c2.9-2.7,4.3-6.2,4.3-10.5c0-2-0.4-3.7-1.1-5.2
		c-0.6-1.5-1.7-2.9-3.3-4.3c-1-0.7-3.5-2.2-7.8-4.5l-0.7-0.4c-2.3-1.2-3.8-2.2-4.7-3.2c-0.7-0.9-1.2-1.9-1.2-3.2
		c0-1.5,0.5-2.7,1.5-3.6c1.1-1,2.2-1.5,3.7-1.5c1.8,0,3.3,0.5,4.6,1.6c1.3,1.1,2.3,2.7,3.2,4.8l4.8-3.5c-1.4-2.7-3.1-4.8-5.4-6.3
		C252,153.4,249.3,152.7,246.3,152.7z M112,153.8l-14.4,44h6l4.1-13h14l4.4,13h12.4l-15.3-44H112z M143.6,153.8v43.9h19.3
		c2.8,0,5.3-0.3,7.7-1.2c2.3-0.9,4.5-2,6.2-3.5c2.4-2.1,4.3-4.7,5.5-7.7c1.3-3,1.9-6.2,1.9-9.6c0-3.5-0.8-6.9-2.5-10.1
		c-1.7-3.2-4-5.7-7-7.9c-2.1-1.4-4.4-2.4-6.9-3.1c-2.6-0.6-5.8-1-10-1H143.6z M191,153.8v28.1c0,3.1,0.3,5.6,0.9,7.4
		c0.5,1.8,1.6,3.4,3,4.9c1.4,1.4,3.2,2.6,5.4,3.4c2.2,0.9,4.7,1.3,7.1,1.3c5.5,0,9.6-1.4,12.3-4.3c2.7-2.8,4-7.1,4-12.8v-28.1h-6v26
		c0,4.4-0.5,7.4-1.7,9.1c-1.2,1.8-3.1,2.7-5.8,2.7c-2.8,0-4.7-0.9-5.8-2.7c-1.2-1.8-1.7-4.8-1.7-9.1v-26H191z M155.3,159.8h4
		c3.8,0,6.8,1.4,8.9,4.1c2.1,2.8,3.2,6.8,3.2,11.9c0,5.2-1.1,9.1-3.2,11.9c-2.1,2.8-5.1,4.1-8.9,4.1h-4V159.8z M114.4,163.5
		l5.4,15.7h-10.3L114.4,163.5z M62.4,224.6c-1.5,0-2.8,0.5-3.8,1.6c-1,1.1-1.5,2.4-1.5,4c0,1.7,0.5,3.1,1.5,4.1
		c1,1.1,2.2,1.6,3.7,1.6c1,0,1.9-0.2,2.7-0.7c0.7-0.5,1.4-1.2,1.8-2.1l-0.6-0.4c-0.3,0.9-0.9,1.4-1.4,1.8s-1.2,0.6-1.9,0.6
		c-1.1,0-1.9-0.4-2.6-1.3c-0.6-0.9-1-2-1-3.5c0-1.6,0.3-2.8,1-3.7s1.6-1.4,2.7-1.4c0.6,0,1.2,0.2,1.7,0.5c0.5,0.3,1,0.9,1.3,1.5
		l0.6-0.4c-0.4-0.7-1.1-1.3-1.7-1.7C64.1,224.9,63.4,224.6,62.4,224.6z M95,224.6c-1,0-1.8,0.3-2.4,1c-0.6,0.6-1,1.4-1,2.3
		c0,0.6,0.2,1.3,0.5,1.7c0.4,0.4,1.1,0.9,1.9,1.2c1.6,0.7,2.4,1.5,2.4,2.4c0,0.5-0.2,1.1-0.5,1.4c-0.3,0.3-0.7,0.5-1.4,0.5
		c-0.4,0-0.7-0.2-1.2-0.4c-0.4-0.2-0.7-0.6-1-1.1l-0.8,0.7c0.3,0.6,0.8,1.1,1.4,1.4c0.5,0.3,1.2,0.4,1.9,0.4c1,0,1.9-0.3,2.6-1
		c0.7-0.6,1.1-1.5,1.1-2.4c0-0.7-0.2-1.4-0.5-1.8c-0.3-0.4-1.2-1-2.3-1.5c-0.7-0.3-1.3-0.6-1.6-1c-0.3-0.2-0.4-0.6-0.4-1.1
		c0-0.6,0.2-1.1,0.5-1.4c0.3-0.3,0.7-0.5,1.3-0.5s1,0.1,1.3,0.4c0.4,0.2,0.6,0.6,0.9,1.2l0.7-0.5c-0.3-0.6-0.7-1.2-1.3-1.5
		C96.3,224.9,95.7,224.6,95,224.6z M161,224.6l-4.5,11.2h0.8l1.2-3h3.8l1.2,3h2.1L161,224.6z M225.1,224.6c-1,0-1.8,0.3-2.4,1
		c-0.6,0.6-1,1.4-1,2.3c0,0.6,0.2,1.3,0.5,1.7c0.4,0.4,1.1,0.9,1.9,1.2c1.6,0.7,2.4,1.5,2.4,2.4c0,0.5-0.2,1.1-0.5,1.4
		c-0.3,0.3-0.7,0.5-1.4,0.5c-0.4,0-0.7-0.2-1.2-0.4c-0.4-0.2-0.7-0.6-1-1.1l-0.9,0.7c0.3,0.6,0.9,1.1,1.4,1.4
		c0.5,0.3,1.2,0.4,1.9,0.4c1,0,1.9-0.3,2.5-1c0.7-0.6,1.1-1.5,1.1-2.4c0-0.7-0.1-1.4-0.5-1.8c-0.3-0.4-1.2-1-2.3-1.5
		c-0.7-0.3-1.3-0.6-1.6-1c-0.3-0.2-0.4-0.6-0.4-1.1c0-0.6,0.2-1.1,0.5-1.4c0.3-0.3,0.7-0.5,1.3-0.5s1,0.1,1.3,0.4
		c0.4,0.2,0.6,0.6,0.9,1.2l0.7-0.5c-0.3-0.6-0.7-1.2-1.3-1.5C226.5,224.9,225.8,224.6,225.1,224.6z M73.3,224.7
		c-0.7,0-1.5,0.1-2.1,0.4c-0.6,0.2-1.3,0.6-1.8,1.2s-0.9,1.1-1.2,1.8c-0.3,0.6-0.4,1.4-0.4,2.2c0,0.7,0.1,1.5,0.4,2.2
		c0.2,0.6,0.6,1.3,1.2,1.8s1.2,0.9,1.8,1.2c0.6,0.3,1.4,0.4,2.1,0.4s1.5-0.1,2.1-0.2c0.6-0.2,1.3-0.6,1.8-1.2c0.6-0.5,1-1.1,1.3-1.8
		c0.3-0.6,0.4-1.4,0.4-2.2c0-1-0.2-1.8-0.6-2.7c-0.4-0.9-1-1.5-1.7-2c-0.5-0.4-1.1-0.6-1.6-0.8C74.4,224.9,73.9,224.7,73.3,224.7z
		 M110.2,224.7v8.5c0,0.6-0.1,1.2-0.3,1.4c-0.2,0.3-0.6,0.4-1.2,0.4h-0.4v0.7h0.5h0.5c1.1,0,1.8-0.2,2.2-0.6s0.6-1.2,0.6-2.1v-8.3
		H110.2z M119.8,224.7c-0.7,0-1.5,0.1-2.1,0.4c-0.6,0.2-1.3,0.6-1.8,1.2s-0.9,1.1-1.2,1.8c-0.3,0.6-0.4,1.4-0.4,2.2
		c0,0.7,0.1,1.5,0.4,2.2c0.2,0.6,0.6,1.3,1.2,1.8s1.2,0.9,1.8,1.2c0.6,0.3,1.4,0.4,2.1,0.4s1.5-0.1,2.1-0.2c0.6-0.2,1.3-0.6,1.8-1.2
		c0.6-0.5,1-1.1,1.3-1.8c0.3-0.6,0.4-1.4,0.4-2.2c0-1-0.2-1.8-0.6-2.7c-0.4-0.9-1-1.5-1.7-2c-0.5-0.4-1.1-0.6-1.6-0.8
		C121,224.9,120.5,224.7,119.8,224.7z M214.6,224.7c-0.7,0-1.5,0.1-2.1,0.4c-0.6,0.2-1.3,0.6-1.8,1.2s-0.9,1.1-1.2,1.8
		c-0.3,0.6-0.4,1.4-0.4,2.2c0,0.7,0.1,1.5,0.4,2.2c0.2,0.6,0.6,1.3,1.2,1.8s1.2,0.9,1.8,1.2c0.6,0.3,1.4,0.4,2.1,0.4
		c0.9,0,1.5-0.1,2.1-0.2c0.6-0.2,1.3-0.6,1.8-1.2c0.6-0.5,1-1.1,1.3-1.8c0.3-0.6,0.4-1.4,0.4-2.2c0-1-0.2-1.8-0.6-2.7
		c-0.4-0.9-1-1.5-1.7-2c-0.5-0.4-1.1-0.6-1.6-0.8C215.7,224.9,215.2,224.7,214.6,224.7z M80.9,224.9v11h1v-8.7l6.5,8.7h1.1v-11h-1.1
		v7.5l-5.6-7.5H80.9z M100.7,224.9v11h6.8V235h-4.8v-4.5h4.4v-0.9h-4.4v-4h4.8v-0.7H100.7z M132.5,224.9v11v0.1h4
		c1.7,0,3-0.5,3.9-1.5c1-1,1.5-2.2,1.5-3.8c0-1.8-0.6-3.2-1.8-4.3c-1.2-1-2.9-1.5-5-1.5H132.5z M144,224.9v11h6.8V235H146v-4.5h4.5
		v-0.9H146v-4h4.8v-0.7H144z M167,224.9v11h6.8V235h-4.7v-10.1H167z M174.7,224.9v7c0,0.9,0,1.5,0.2,1.9c0.2,0.4,0.4,0.9,0.7,1.2
		c0.3,0.3,0.7,0.6,1.3,0.9c0.5,0.2,1.2,0.3,1.7,0.3c1.3,0,2.2-0.3,2.9-1.1c0.6-0.7,1-1.8,1-3.2v-7h-1v6.6c0,1.3-0.2,2.1-0.5,2.7
		c-0.3,0.5-1,0.7-1.8,0.7s-1.5-0.2-1.8-0.7c-0.3-0.4-0.5-1.4-0.5-2.7v-6.6h-2H174.7z M185.2,224.9v11h1V227l3.8,9.2l3.7-9.2v8.8h2
		v-11h-2.1l-3,7.4l-3.2-7.4H185.2z M198.5,224.9v11h1v-8.7l6.6,8.7h1v-11h-1v7.5l-5.7-7.5H198.5z M235.7,224.9v11v0.1h4
		c1.7,0,3-0.5,3.9-1.5c1-1,1.5-2.2,1.5-3.8c0-1.8-0.6-3.2-1.8-4.3c-1.2-1-2.9-1.5-5-1.5H235.7z M247.3,224.9v11h6.7V235h-4.7v-4.5
		h4.4v-0.9h-4.4v-4h4.7v-0.7H247.3z M73.3,225.3c1,0,1.8,0.4,2.4,1.4c0.6,0.9,1,2.1,1,3.6s-0.3,2.8-1,3.6c-0.6,1-1.5,1.4-2.4,1.4
		c-1,0-1.8-0.4-2.4-1.4c-0.6-1-1-2.1-1-3.6s0.3-2.7,1-3.6C71.5,225.7,72.3,225.3,73.3,225.3z M119.8,225.3c1,0,1.8,0.4,2.4,1.4
		c0.6,0.9,1,2.1,1,3.6s-0.3,2.8-1,3.6c-0.6,1-1.5,1.4-2.4,1.4c-1,0-1.8-0.4-2.4-1.4c-0.6-1-1-2.1-1-3.6s0.3-2.7,1-3.6
		C118,225.7,118.9,225.3,119.8,225.3z M214.7,225.3c1,0,1.8,0.4,2.4,1.4c0.6,0.9,1,2.1,1,3.6s-0.3,2.8-1,3.6c-0.6,1-1.5,1.4-2.4,1.4
		c-1,0-1.8-0.4-2.4-1.4c-0.6-1-1-2.1-1-3.6s0.3-2.7,1-3.6C212.9,225.7,213.7,225.3,214.7,225.3z M134.4,225.7h0.6
		c1.5,0,2.7,0.3,3.4,1.2c0.7,0.7,1.2,1.9,1.2,3.4c0,0.9-0.1,1.7-0.3,2.3c-0.3,0.6-0.6,1.2-1.1,1.6c-0.3,0.2-0.6,0.4-1.1,0.5
		c-0.4,0.1-1,0.2-1.6,0.2h-1.2V225.7z M237.7,225.7h0.6c1.5,0,2.7,0.3,3.4,1.2c0.7,0.7,1.2,1.9,1.2,3.4c0,0.9-0.1,1.7-0.3,2.3
		c-0.3,0.6-0.6,1.2-1.1,1.6c-0.3,0.2-0.6,0.4-1.1,0.5c-0.4,0.1-1,0.2-1.6,0.2h-1.2V225.7z M160.5,228.1l1.6,4H159L160.5,228.1z
		 M68.5,244.3l-4.2,10.4h-4.4v-10.2h-2v11h6.8h0.2l1.2-3h3.8l1.2,3h2.1L68.5,244.3z M157.9,244.3l-4.5,11.2h0.9l1.2-3h3.8l1.2,3h2.1
		L157.9,244.3z M252,244.3l-4.2,10.4h-4.4v-10.2h-2v11h6.8h0.2l1.2-3h3.8l1.2,3h2.1L252,244.3z M133.9,244.4c-1,0-1.8,0.3-2.4,1
		c-0.6,0.6-1,1.4-1,2.3c0,0.6,0.2,1.3,0.5,1.7c0.4,0.4,1.1,0.9,1.9,1.2c1.6,0.7,2.4,1.5,2.4,2.4c0,0.5-0.2,1.1-0.5,1.4
		c-0.3,0.3-0.7,0.5-1.4,0.5c-0.4,0-0.7-0.2-1.2-0.4c-0.4-0.2-0.7-0.6-1-1.1l-0.8,0.7c0.3,0.6,0.8,1.1,1.4,1.4
		c0.5,0.3,1.2,0.4,1.9,0.4c1,0,1.9-0.3,2.6-1c0.7-0.6,1.1-1.5,1.1-2.4c0-0.7-0.1-1.4-0.5-1.8c-0.3-0.4-1.2-1-2.3-1.5
		c-0.7-0.3-1.3-0.6-1.6-1c-0.3-0.2-0.4-0.6-0.4-1.1c0-0.6,0.2-1.1,0.5-1.4c0.3-0.3,0.7-0.5,1.3-0.5c0.5,0,1,0.1,1.3,0.4
		c0.4,0.2,0.6,0.6,0.9,1.2l0.7-0.5c-0.3-0.6-0.7-1.2-1.3-1.5C135.2,244.6,134.6,244.4,133.9,244.4z M206.4,244.4c-1,0-1.8,0.3-2.4,1
		c-0.6,0.6-1,1.4-1,2.3c0,0.6,0.2,1.3,0.5,1.7c0.4,0.4,1.1,0.9,1.9,1.2c1.6,0.7,2.4,1.5,2.4,2.4c0,0.5-0.2,1.1-0.5,1.4
		c-0.3,0.3-0.7,0.5-1.4,0.5c-0.4,0-0.7-0.2-1.2-0.4c-0.4-0.2-0.7-0.6-1-1.1l-0.9,0.7c0.3,0.6,0.9,1.1,1.4,1.4
		c0.5,0.3,1.2,0.4,1.9,0.4c1,0,1.9-0.3,2.6-1c0.7-0.6,1.1-1.5,1.1-2.4c0-0.7-0.1-1.4-0.5-1.8c-0.3-0.4-1.2-1-2.3-1.5
		c-0.7-0.3-1.3-0.6-1.6-1c-0.3-0.2-0.4-0.6-0.4-1.1c0-0.6,0.2-1.1,0.5-1.4c0.3-0.3,0.7-0.5,1.3-0.5s1,0.1,1.3,0.4
		c0.4,0.2,0.6,0.6,0.8,1.2l0.7-0.5c-0.3-0.6-0.7-1.2-1.3-1.5C207.7,244.6,207.1,244.4,206.4,244.4z M78.5,244.5v7
		c0,0.9,0,1.5,0.2,1.9c0.2,0.4,0.4,0.9,0.7,1.2c0.3,0.3,0.7,0.6,1.3,0.9c0.5,0.2,1.2,0.3,1.7,0.3c1.3,0,2.2-0.3,2.9-1.1
		c0.6-0.7,1-1.8,1-3.2v-7h-1v6.6c0,1.3-0.2,2.1-0.5,2.7c-0.3,0.5-1,0.7-1.8,0.7c-0.9,0-1.5-0.2-1.8-0.7c-0.3-0.4-0.5-1.4-0.5-2.7
		v-6.6h-2H78.5z M88.8,244.5v11h1v-8.7l6.6,8.7h1v-11h-1v7.5l-5.7-7.5H88.8z M99.8,244.5v11h2v-11H99.8z M102.8,244.5l4.6,11.3
		l4.4-11.3h-1.1l-2.8,7.4l-3-7.4H102.8z M112.7,244.5v11h6.8v-0.7h-4.7v-4.6h4.4v-0.7h-4.4v-4h4.7v-0.9H112.7z M121.5,244.5v11v0.2
		h2v-10.3h0.8c1,0,1.6,0.2,2.1,0.6c0.5,0.4,0.7,1,0.7,1.8c0,0.7-0.3,1.3-0.7,1.6c-0.4,0.3-1.3,0.5-2.4,0.6l3,5.5h2.2l-2.9-5.1
		c1,0,1.6-0.3,2.1-0.7c0.5-0.5,0.7-1.2,0.7-1.9c0-1.1-0.3-1.9-1.1-2.4c-0.7-0.5-1.7-0.9-3.1-0.9H121.5z M139.3,244.5v11h2v-11H139.3
		z M144,244.5v11v0.1h4c1.7,0,3-0.5,3.9-1.5c1-1,1.5-2.2,1.5-3.8c0-1.8-0.6-3.2-1.8-4.3c-1.2-1-2.9-1.5-5-1.5H144z M163.6,244.5v11
		v0.1h4c1.7,0,3-0.5,3.9-1.5c1-1,1.5-2.2,1.5-3.8c0-1.8-0.6-3.2-1.8-4.3c-1.2-1-2.9-1.5-5-1.5H163.6z M179.3,244.5v11v0.1h4
		c1.7,0,3-0.5,3.9-1.5c1-1,1.5-2.2,1.5-3.8c0-1.8-0.6-3.2-1.8-4.3c-1.2-1-2.9-1.5-5-1.5H179.3z M190.4,244.5v11h6.8v-0.7h-4.8v-4.6
		h4.5v-0.7h-4.5v-4h4.8v-0.9H190.4z M211.8,244.5v11h6.8v-0.7h-4.8v-4.6h4.5v-0.7h-4.5v-4h4.8v-0.9H211.8z M219,244.5l4.6,11.3
		l4.4-11.3h-1.1l-2.8,7.4l-2.9-7.4H219z M229,244.5v11h2v-11H229z M233.7,244.5v11h6.7v-0.7h-4.7v-10.2H233.7z M146,245.5h0.6
		c1.5,0,2.7,0.3,3.4,1.2c0.7,0.7,1.2,1.9,1.2,3.4c0,0.9-0.1,1.7-0.3,2.3c-0.3,0.6-0.6,1.2-1.1,1.6c-0.3,0.2-0.6,0.4-1.1,0.5
		c-0.4,0.1-1,0.2-1.6,0.2H146V245.5z M165.7,245.5h0.6c1.5,0,2.7,0.3,3.4,1.2c0.7,0.7,1.2,1.9,1.2,3.4c0,0.9-0.1,1.7-0.3,2.3
		c-0.3,0.6-0.6,1.2-1.1,1.6c-0.3,0.2-0.6,0.4-1.1,0.5c-0.4,0.1-1,0.2-1.6,0.2h-1.2V245.5z M181.3,245.5h0.6c1.5,0,2.7,0.4,3.4,1.2
		c0.7,0.7,1.2,1.9,1.2,3.4c0,0.9-0.1,1.7-0.3,2.3c-0.3,0.6-0.6,1.2-1.1,1.6c-0.3,0.2-0.6,0.4-1.1,0.5c-0.4,0.1-1,0.2-1.6,0.2h-1.2
		V245.5z M68.1,247.8l1.6,4h-3.2L68.1,247.8z M157.4,247.8l1.6,4h-3.2L157.4,247.8z M251.5,247.8l1.6,4H250L251.5,247.8z"/>
</g>
<sodipodi:namedview  bordercolor="#666666" borderopacity="1" gridtolerance="10" guidetolerance="10" id="namedview105" inkscape:current-layer="Capa_1" inkscape:cx="315.74709" inkscape:cy="150.09139" inkscape:guide-bbox="true" inkscape:pageopacity="0" inkscape:pageshadow="2" inkscape:window-height="1017" inkscape:window-maximized="1" inkscape:window-width="2560" inkscape:window-x="-8" inkscape:window-y="-8" inkscape:zoom="2" objecttolerance="10" pagecolor="#ffffff" showgrid="false" showguides="true">
	</sodipodi:namedview>
</svg>
