<?xml version="1.0" encoding="UTF-8" standalone="no"?>
<svg
   xmlns:dc="http://purl.org/dc/elements/1.1/"
   xmlns:cc="http://creativecommons.org/ns#"
   xmlns:rdf="http://www.w3.org/1999/02/22-rdf-syntax-ns#"
   xmlns:svg="http://www.w3.org/2000/svg"
   xmlns="http://www.w3.org/2000/svg"
   xmlns:sodipodi="http://sodipodi.sourceforge.net/DTD/sodipodi-0.dtd"
   xmlns:inkscape="http://www.inkscape.org/namespaces/inkscape"
   width="96pt"
   height="96pt"
   viewBox="0 0 96 96"
   version="1.2"
   id="svg7"
   sodipodi:docname="fb.svg"
   inkscape:version="1.0.2 (e86c870879, 2021-01-15, custom)">
  <metadata
     id="metadata13">
    <rdf:RDF>
      <cc:Work
         rdf:about="">
        <dc:format>image/svg+xml</dc:format>
        <dc:type
           rdf:resource="http://purl.org/dc/dcmitype/StillImage" />
        <dc:title></dc:title>
      </cc:Work>
    </rdf:RDF>
  </metadata>
  <defs
     id="defs11" />
  <sodipodi:namedview
     pagecolor="#ffffff"
     bordercolor="#666666"
     borderopacity="1"
     objecttolerance="10"
     gridtolerance="10"
     guidetolerance="10"
     inkscape:pageopacity="0"
     inkscape:pageshadow="2"
     inkscape:window-width="2560"
     inkscape:window-height="1017"
     id="namedview9"
     showgrid="false"
     fit-margin-top="0"
     fit-margin-left="0"
     fit-margin-right="0"
     fit-margin-bottom="0"
     inkscape:zoom="4.9804688"
     inkscape:cx="85.333333"
     inkscape:cy="69.270588"
     inkscape:window-x="-8"
     inkscape:window-y="-8"
     inkscape:window-maximized="1"
     inkscape:current-layer="surface9452" />
  <g
     id="surface9452">
    <g
       id="g840">
      <path
         style="opacity:1;fill:#8d0739;fill-opacity:1;fill-rule:nonzero;stroke:none;stroke-width:1"
         d="M 95.999997,47.999999 C 95.999997,21.492187 74.507811,0 47.999999,0 21.492187,0 0,21.492187 0,47.999999 0,71.956053 17.548828,91.813475 40.499999,95.419917 V 61.877928 H 28.30957 V 47.999999 H 40.499999 V 37.423828 c 0,-12.029297 7.168945,-18.679687 18.131835,-18.679687 5.25293,0 10.746094,0.940429 10.746094,0.940429 v 11.8125 h -6.055664 c -5.958984,0 -7.822265,3.697265 -7.822265,7.49707 v 9.005859 h 13.30957 L 66.682615,61.877928 H 55.499999 V 95.419917 C 78.451168,91.822265 95.999997,71.961912 95.999997,47.999999"
         id="path2" />
      <path
         style="fill:#fdfdfd;fill-opacity:1;fill-rule:nonzero;stroke:none;stroke-width:1"
         d="M 66.682615,61.877928 68.809569,47.999999 H 55.499999 V 38.99414 c 0,-3.791016 1.854491,-7.49707 7.822265,-7.49707 h 6.055664 v -11.8125 c 0,0 -5.493164,-0.940429 -10.746094,-0.940429 -10.96289,0 -18.131835,6.644531 -18.131835,18.679687 V 47.999999 H 28.30957 v 13.877929 h 12.190429 v 33.541989 c 2.44336,0.38379 4.948242,0.58008 7.5,0.58008 2.551758,0 5.056641,-0.202147 7.5,-0.58008 V 61.877928 Z m 0,0"
         id="path4" />
    </g>
  </g>
</svg>
